<svg xmlns="http://www.w3.org/2000/svg" viewBox="0 0 37.05 55"><defs><style>.cls-1{fill:#fff;}</style></defs><title>ico-eos</title><g id="图层_2" data-name="图层 2"><g id="图层_1-2" data-name="图层 1"><path id="_复合路径_" data-name="&lt;复合路径&gt;" class="cls-1" d="M18.56,55c-.46-.22-12.41-7.25-18-10.56a.89.89,0,0,1-.5-1.2c2-8.55,4-17.11,6-25.67a2.71,2.71,0,0,1,.41-.92L17.82.51c.48-.68,1-.68,1.5,0L30.6,16.28a1.84,1.84,0,0,1,.3.67q2.74,11.9,5.46,23.79c.2.89.42,1.78.65,2.66a.52.52,0,0,1-.27.69C31.09,47.52,19,54.78,18.56,55Zm0-41.86a1.35,1.35,0,0,0-.15.17q-4,6.88-8.05,13.77a1,1,0,0,0,0,.78c.94,3,4.22,13.29,4.9,15.44,2.12,0,4.22,0,6.32,0,.14,0,.35-.24.41-.41q2.38-7.66,4.73-15.34a1,1,0,0,0-.08-.69C26.11,25.94,20.76,16.85,18.57,13.14Zm-.33-12S10.79,11.71,7.17,16.9a.91.91,0,0,0-.09.72c.84,2.73,1.71,5.45,2.58,8.17.06.2.14.4.23.64a.92.92,0,0,0,.15-.16Q14,19.49,18,12.7a2,2,0,0,0,.26-1C18.25,9.79,18.24,2.76,18.24,1.16Zm8.83,25.06c.08-.19.13-.31.17-.43.88-2.86,1.75-5.72,2.65-8.57a.94.94,0,0,0-.16-.94C26.22,11.39,18.9,1.16,18.9,1.16v.65c0,3.29,0,6.59,0,9.89a2.43,2.43,0,0,0,.32,1.18C21.59,16.93,26.81,25.78,27.07,26.22ZM27.29,28c-1.59,5.17-3.15,10.21-4.7,15.26H36.25ZM14.49,43.27c-1.59-5-3.18-10-4.8-15.07-3,5.08-5.88,10.05-8.83,15.07Zm3.39,10.65L14.73,44H1.26Zm1.42,0L35.46,44,35.17,44C31,44,26.9,44,22.76,44c-.4,0-.47.22-.55.5C21.59,46.46,19.68,52.67,19.3,53.89Zm11.12-36-.23.69q-1.23,4-2.47,8a1.13,1.13,0,0,0,.12,1L35.65,40.8C33.94,33.31,32.17,25.55,30.42,17.9Zm-23.79.69-.1,0C4.8,26,3,33.68,1.27,41.12c0,0,4.79-8.21,7.13-12a3.88,3.88,0,0,0,.41-3.83C8,23.11,7.35,20.83,6.63,18.59ZM15.45,44c1,3.27,3.09,9.88,3.13,9.88l3-9.88Z"/></g></g></svg>