<svg xmlns="http://www.w3.org/2000/svg" viewBox="0 0 186.3 186.3"><defs><style>.cls-1,.cls-2,.cls-5,.cls-7{fill:none;}.cls-2,.cls-4,.cls-5,.cls-7,.cls-8{stroke:#000;}.cls-2,.cls-4,.cls-7,.cls-8{stroke-miterlimit:10;}.cls-2,.cls-4,.cls-5,.cls-8{stroke-width:1.62px;}.cls-3,.cls-8{fill:#fff;}.cls-4,.cls-6{fill:#03c0b7;}.cls-5{stroke-linecap:round;stroke-linejoin:round;}.cls-7{stroke-width:0.81px;}</style></defs><title>svg004</title><g id="图层_2" data-name="图层 2"><g id="图层_1-2" data-name="图层 1"><rect class="cls-1" width="186.3" height="186.3"/><path class="cls-2" d="M162.41,99.66h-7.85a1.79,1.79,0,0,0-1.73,2.26c1,3.42,2.61,9.19.73,11.91-2.12,3.08-11.78-.55-2.89,15.61,7.89,14.29-3.08,15.95-20.06,13.38-23.92-3.62-14.73,10.88-15.74,25.41h-53C65,152,64.32,133.67,51.67,101.8,47.4,93.93,40.35,76,40.64,66.32a42.81,42.81,0,0,1,1.9-11.46,1.76,1.76,0,0,0-.07.6c0,6.34,24.61,11.47,55,11.47,29.19,0,52.94-3.56,54.75-9.55a4.43,4.43,0,0,1,.18-.55A34.68,34.68,0,0,1,149,75.56c-1,2.16,1,4.71,2.6,6.54l12.34,14.2A2,2,0,0,1,162.41,99.66Z"/><path class="cls-3" d="M112.59,165.8H64.79l.35-2.74c2.33-17.89-1-36.48-11.21-62.15l-.13-.26c-4.55-8.41-11-25.45-10.74-34.26,0-.68.06-1.34.11-2l.28-3.49,3.17,1.48c14.23,6.64,44.83,7,50.82,7,22.47,0,39.34-1.8,48.78-5.2l4.1-1.47-.9,4.26a32.42,32.42,0,0,1-2.61,7.54c-1.58,3.29.61,6.5,2.95,9.2l11.77,13.54h-7a4.21,4.21,0,0,0-4.07,5.33c1.51,5.29,1.59,7.24,1.52,8.25l-.11,1.64-1.83.59c-1.61.52-4,1.3-5.08,3.89-1.15,2.9-.06,7.12,3.55,13.68,2.88,5.21,2.44,7.47,1.93,8.35s-2.43,2.44-8.68,2.44a73.45,73.45,0,0,1-10.82-1,47.07,47.07,0,0,0-6.88-.59c-4.7,0-8,1.11-10,3.4-3.21,3.56-2.64,9-2.05,14.78.18,1.75.36,3.5.46,5.23ZM70.27,161h37.14c-.07-.8-.16-1.6-.24-2.4-.65-6.31-1.38-13.41,3.27-18.57,3-3.36,7.5-5,13.65-5a50.29,50.29,0,0,1,7.61.65,69.08,69.08,0,0,0,10.09.92,18.72,18.72,0,0,0,4-.34,17.6,17.6,0,0,0-1.47-3.25c-4.43-8.06-5.57-13.39-3.81-17.82A10.88,10.88,0,0,1,147,109a47.6,47.6,0,0,0-1.22-5.1A9.08,9.08,0,0,1,151.38,93l-5.28-6.08c-1.87-2.15-6.84-7.87-3.66-14.5.37-.75.7-1.51,1-2.28-10.34,2.74-25.77,4.12-46,4.12-8,0-34-.46-49.49-6,.54,8.07,6.11,22.79,10.12,30.18l.36.78C68.44,124.33,72.05,143,70.27,161Z"/><rect class="cls-4" x="53.51" y="168.96" width="73.62" height="12.27" rx="1.84" ry="1.84"/><path class="cls-4" d="M152.19,57.37c-1.8,6-25.57,9.55-54.75,9.55-30.35,0-55-5.12-55-11.46a2,2,0,0,1,.08-.59C44,48.83,68,44,97.44,44c28.07,0,51,4,54.3,9.62A3.38,3.38,0,0,1,152.19,57.37Z"/><path class="cls-5" d="M109.35,100.42a85.28,85.28,0,0,1,54.94-88.89"/><polyline class="cls-5" points="140.93 2.49 165.57 11.46 154.83 35.38"/><path class="cls-5" d="M73.14,99.34A80.42,80.42,0,0,0,21.32,15.51"/><polyline class="cls-5" points="31.67 38.86 20.93 14.94 45.57 5.97"/><circle class="cls-3" cx="114.1" cy="21.09" r="9.6" transform="translate(18.5 86.86) rotate(-45)"/><path class="cls-2" d="M114.1,33.12a12,12,0,1,1,12-12A12,12,0,0,1,114.1,33.12Zm0-19.21a7.18,7.18,0,1,0,7.18,7.18A7.19,7.19,0,0,0,114.1,13.91Z"/><circle class="cls-6" cx="114.1" cy="21.09" r="9.6" transform="translate(18.5 86.86) rotate(-45)"/><circle class="cls-3" cx="67.11" cy="15.01" r="7.93"/><circle class="cls-5" cx="67.11" cy="15.01" r="10.36" transform="translate(37.08 76.88) rotate(-76.72)"/><circle class="cls-7" cx="67.11" cy="15.01" r="5.51" transform="translate(9.04 51.85) rotate(-45)"/><path class="cls-3" d="M105.85,66.85a11.49,11.49,0,0,0,.11-1.44,10,10,0,0,0-20.06,0A7.48,7.48,0,0,0,86,66.67Z"/><path d="M108,69.29l-24-.21-.33-2a10.25,10.25,0,0,1-.12-1.66,12.45,12.45,0,0,1,24.9,0,13.08,13.08,0,0,1-.13,1.78Zm-19.54-5,15,.14a7.6,7.6,0,0,0-15-.14Z"/><rect class="cls-3" x="76.89" y="27.62" width="18.44" height="18.44" transform="translate(51.27 -50.1) rotate(45)"/><path class="cls-8" d="M86.11,53.31,69.64,36.84,86.11,20.37l16.46,16.47ZM76.5,36.84l9.61,9.61,9.6-9.61-9.6-9.61Z"/><path d="M87.8,116.5a3.36,3.36,0,1,0,3.36,3.36A3.35,3.35,0,0,0,87.8,116.5Z"/><path d="M87.8,104.91a3.36,3.36,0,1,0,3.36,3.36A3.35,3.35,0,0,0,87.8,104.91Z"/><circle cx="87.8" cy="96.67" r="3.36"/><path d="M87.8,81.72a3.36,3.36,0,1,0,3.36,3.36A3.35,3.35,0,0,0,87.8,81.72Z"/><path d="M99.55,116.5a3.36,3.36,0,1,0,3.36,3.36A3.35,3.35,0,0,0,99.55,116.5Z"/><path d="M99.55,104.91a3.36,3.36,0,1,0,3.36,3.36A3.35,3.35,0,0,0,99.55,104.91Z"/><path d="M99.55,93.31a3.36,3.36,0,1,0,3.36,3.36A3.36,3.36,0,0,0,99.55,93.31Z"/><path d="M99.55,81.72a3.36,3.36,0,1,0,3.36,3.36A3.35,3.35,0,0,0,99.55,81.72Z"/><path class="cls-3" d="M72.4,111.19a21.57,21.57,0,0,0,.88,5l-3.59,1.07a25.61,25.61,0,0,1-1-5.89Zm2.9,9.73a22.3,22.3,0,0,0,3,4.11l-2.73,2.56a26.27,26.27,0,0,1-3.56-4.81Zm7,7.41a22,22,0,0,0,4.56,2.31l-1.29,3.51a25.75,25.75,0,0,1-5.34-2.7Zm14.64,3.54.42,3.72a25.45,25.45,0,0,1-6,0l.45-3.71A21.84,21.84,0,0,0,96.89,131.87Zm9.56-3.43,2,3.14a26.25,26.25,0,0,1-5.36,2.66l-1.26-3.53A21.72,21.72,0,0,0,106.45,128.44Zm7-7.33,3.23,1.89a25.43,25.43,0,0,1-3.61,4.78l-2.7-2.59A22.18,22.18,0,0,0,113.48,121.11Zm6.73-9.45a26,26,0,0,1-1.09,5.87l-3.58-1.1a22.09,22.09,0,0,0,.93-5Z"/></g></g></svg>