<svg xmlns="http://www.w3.org/2000/svg" viewBox="0 0 30.67 37.07"><defs><style>.cls-1{fill:#333;}</style></defs><title>资源 1</title><g id="图层_2" data-name="图层 2"><g id="图层_1-2" data-name="图层 1"><path class="cls-1" d="M22.36,29.28a7.71,7.71,0,0,0-2.05-5.38h1.16a9.21,9.21,0,0,0,9.2-9.25V12.2A9.23,9.23,0,0,0,27.8,5.5V0L22.58,3A10,10,0,0,0,21.47,3H11.62a9.57,9.57,0,0,0-2.22.28L3.83,0V7.29A9.3,9.3,0,0,0,2.42,12.2v2.45a9.21,9.21,0,0,0,9.2,9.25h1a7.58,7.58,0,0,0-2,4.36C6.31,29.94,5.58,24.8,0,24c6.66,5.45,3.33,6.92,10.6,7.29v5.05h0a20,20,0,0,0,2.18.44h0V35.2c0-3.91.28-7.06.64-7.06h0c.35,0,.64,3.15.64,7.06V37h0c.63.06,1.27.1,1.91.1h.14c0-.3,0-.61,0-.94V34.68c0-3.91.29-7.06.64-7.06h0c.36,0,.64,3.15.64,7.06v1.43c0,.31,0,.59,0,.88h0c.62,0,1.22-.1,1.82-.19h0V35.2c0-3.91.28-7.06.64-7.06s.64,3.15.64,7.06v1.4h0c.65-.14,1.29-.31,1.91-.5h0Z"/></g></g></svg>