<svg xmlns="http://www.w3.org/2000/svg" viewBox="0 0 186.3 186.3"><defs><style>.cls-1,.cls-2,.cls-3,.cls-8{fill:none;}.cls-1,.cls-2,.cls-4,.cls-6,.cls-8{stroke:#000;}.cls-1,.cls-4,.cls-6,.cls-8{stroke-miterlimit:10;}.cls-1,.cls-4,.cls-6{stroke-width:1.62px;}.cls-2{stroke-linecap:round;stroke-linejoin:round;stroke-width:2.43px;}.cls-4,.cls-5{fill:#fff;}.cls-6{fill:#03c0b7;}.cls-7{fill:#d2d2d2;}.cls-8{stroke-width:0.81px;}</style></defs><title>资源 13</title><g id="图层_2" data-name="图层 2"><g id="图层_1-2" data-name="图层 1"><path class="cls-1" d="M103,167.25a61.13,61.13,0,1,1,40-14.91h0A60.89,60.89,0,0,1,103,167.25Z"/><polyline class="cls-2" points="179.2 77.79 163.78 102.51 140.25 85.34"/><rect class="cls-3" width="186.3" height="186.3"/><path class="cls-2" d="M163.92,102.51A61,61,0,0,0,102.83,45"/><path d="M130.23,61.28v5.28h-3.56V61.28Zm0,10.56v5.28h-3.56V71.84Zm0,10.56v5.28h-3.56V82.4Zm0,10.56v5.28h-3.56V93Zm9-10.56v5.28h-3.55V82.4Zm0-10.46v5.28h-3.55V71.94Zm0,21v5.28h-3.55V93Zm8.73,0v5.28h-3.55V93Zm-8.73,9.22v5.28h-3.55v-5.28Zm8.73,0v5.28h-3.55v-5.28Zm-8.73,9.22v5.28h-3.55V111.4Zm8.73,0v5.28h-3.55V111.4ZM96.18,143.58v5.28H92.63v-5.28Zm8.73,0v5.28h-3.55v-5.28Zm-8.73,9.22v5.28H92.63V152.8Zm8.73,0v5.28h-3.55V152.8Z"/><polyline class="cls-2" points="58.3 174 55.22 145.02 84.33 144.05"/><rect class="cls-4" x="16.95" y="8.72" width="101.82" height="120.61"/><rect class="cls-4" x="14.53" y="6.29" width="106.67" height="125.46"/><circle class="cls-5" cx="144.71" cy="153.59" r="9.13"/><path class="cls-2" d="M55.54,144.67c.41.5.81,1,1.24,1.5a61,61,0,0,0,46.15,21.08H103a60.89,60.89,0,0,0,47.43-22.58"/><path class="cls-6" d="M135.76,178.57a24.6,24.6,0,0,1-3.31-1.46l-1.08-.57v-4.65a22.4,22.4,0,0,1-3.56-3.24l-4.65.44-.68-1a26.83,26.83,0,0,1-3.06-6.49l-.38-1.18,3.31-3.33a21.84,21.84,0,0,1-.23-4.78l-3.59-3,.24-1.2a26.52,26.52,0,0,1,1-3.47,24.71,24.71,0,0,1,1.45-3.31l.58-1.08h4.66a22.06,22.06,0,0,1,3.22-3.54L129.2,132l1-.68a26.88,26.88,0,0,1,6.49-3.06l1.18-.37,3.31,3.3A22.7,22.7,0,0,1,146,131l3-3.58,1.19.24a25.62,25.62,0,0,1,6.79,2.43l1.08.57v4.68a22.49,22.49,0,0,1,3.54,3.22l4.66-.45.68,1A26.72,26.72,0,0,1,170,145.6l.38,1.18-3.31,3.34a23.22,23.22,0,0,1,.23,4.78l3.59,3-.25,1.2a24.24,24.24,0,0,1-1,3.47,24.6,24.6,0,0,1-1.46,3.31l-.57,1.08H163a22.56,22.56,0,0,1-3.22,3.55l.44,4.68-1,.67a26.63,26.63,0,0,1-6.48,3l-1.18.37L148.19,176a22.55,22.55,0,0,1-4.78.24l-3,3.6-1.19-.24A26.22,26.22,0,0,1,135.76,178.57Z"/><path class="cls-4" d="M140.94,164.11a11.18,11.18,0,1,1,14.28-6.75A11.19,11.19,0,0,1,140.94,164.11Z"/><rect class="cls-7" x="23.43" y="15.19" width="88.87" height="106.84"/><path d="M106.4,24a2.73,2.73,0,1,0-2.73,2.73A2.74,2.74,0,0,0,106.4,24Z"/><path class="cls-5" d="M50.2,28.62h0Z"/><path d="M85.53,31H50.2a2.43,2.43,0,0,1,0-4.85H85.53a2.43,2.43,0,1,1,0,4.85Z"/><path class="cls-5" d="M40.9,53.88h0Z"/><path d="M79,56.3H40.9a2.43,2.43,0,1,1,0-4.85H79a2.43,2.43,0,1,1,0,4.85Z"/><path class="cls-5" d="M35.25,41.25h0Z"/><path d="M100.49,43.67H35.25a2.43,2.43,0,1,1,0-4.85h65.24a2.43,2.43,0,1,1,0,4.85Z"/><path class="cls-5" d="M35.25,66.51h0Z"/><path d="M78.28,68.93h-43a2.43,2.43,0,1,1,0-4.85h43a2.43,2.43,0,0,1,0,4.85Z"/><circle class="cls-8" cx="96.83" cy="62.28" r="6.84" transform="translate(-15.78 38.32) rotate(-20.74)"/><path d="M96.83,71.55a9.31,9.31,0,0,1-3.8-.82,9.17,9.17,0,1,1,3.8.82Zm0-13.68A4.41,4.41,0,0,0,95,66.3a4.41,4.41,0,1,0,3.62-8A4.42,4.42,0,0,0,96.84,57.87Z"/><path class="cls-8" d="M117.41,122.39a7.48,7.48,0,1,0-9.82,3.91A7.48,7.48,0,0,0,117.41,122.39Z"/><path d="M37,87.6a4.21,4.21,0,1,1,4.2-4.21A4.22,4.22,0,0,1,37,87.6Zm0-6.28a2.07,2.07,0,1,0,2.06,2.07A2.07,2.07,0,0,0,37,81.32Z"/><rect x="42.86" y="79.42" width="2.14" height="7.95"/><rect x="38.17" y="89.15" width="2.14" height="7.95"/><rect x="34.13" y="89.15" width="2.14" height="7.95"/><path d="M50.76,87.6A4.21,4.21,0,1,1,55,83.39,4.22,4.22,0,0,1,50.76,87.6Zm0-6.28a2.07,2.07,0,1,0,2.07,2.07A2.07,2.07,0,0,0,50.76,81.32Z"/><path d="M46.14,97.33a4.21,4.21,0,1,1,4.21-4.21A4.21,4.21,0,0,1,46.14,97.33Zm0-6.28a2.07,2.07,0,1,0,2.07,2.07A2.07,2.07,0,0,0,46.14,91.05Z"/><rect x="51.98" y="89.15" width="2.14" height="7.95"/><path d="M59.88,97.33a4.21,4.21,0,1,1,4.2-4.21A4.22,4.22,0,0,1,59.88,97.33Zm0-6.28A2.07,2.07,0,1,0,62,93.12,2.07,2.07,0,0,0,59.88,91.05Z"/><rect x="65.78" y="89.15" width="2.14" height="7.95"/><path d="M64.71,87.6a4.21,4.21,0,1,1,4.2-4.21A4.22,4.22,0,0,1,64.71,87.6Zm0-6.28a2.07,2.07,0,1,0,2.06,2.07A2.07,2.07,0,0,0,64.71,81.32Z"/><rect x="56.59" y="79.42" width="2.14" height="7.95"/><path d="M37.18,107.52a4.21,4.21,0,1,1,4.21-4.2A4.2,4.2,0,0,1,37.18,107.52Zm0-6.27a2.07,2.07,0,1,0,2.07,2.07A2.07,2.07,0,0,0,37.18,101.25Z"/><rect x="42.86" y="99.34" width="2.14" height="7.95"/><path d="M50.76,107.52a4.21,4.21,0,1,1,4.21-4.2A4.21,4.21,0,0,1,50.76,107.52Zm0-6.27a2.07,2.07,0,1,0,2.07,2.07A2.07,2.07,0,0,0,50.76,101.25Z"/><path d="M60.24,107.52a4.21,4.21,0,1,1,4.21-4.2A4.2,4.2,0,0,1,60.24,107.52Zm0-6.27a2.07,2.07,0,1,0,2.07,2.07A2.07,2.07,0,0,0,60.24,101.25Z"/><rect x="65.8" y="99.34" width="2.14" height="7.95"/><path d="M74.65,87.6a4.21,4.21,0,1,1,4.2-4.21A4.22,4.22,0,0,1,74.65,87.6Zm0-6.28a2.07,2.07,0,1,0,2.06,2.07A2.07,2.07,0,0,0,74.65,81.32Z"/><rect x="80.48" y="79.42" width="2.14" height="7.95"/><rect x="75.79" y="89.15" width="2.14" height="7.95"/><rect x="71.75" y="89.15" width="2.14" height="7.95"/><path d="M88.38,87.6a4.21,4.21,0,1,1,4.2-4.21A4.22,4.22,0,0,1,88.38,87.6Zm0-6.28a2.07,2.07,0,1,0,2.07,2.07A2.07,2.07,0,0,0,88.38,81.32Z"/><path d="M83.76,97.33A4.21,4.21,0,1,1,88,93.12,4.21,4.21,0,0,1,83.76,97.33Zm0-6.28a2.07,2.07,0,1,0,2.07,2.07A2.07,2.07,0,0,0,83.76,91.05Z"/><rect x="89.6" y="89.15" width="2.14" height="7.95"/><path d="M97.5,97.33a4.21,4.21,0,1,1,4.2-4.21A4.22,4.22,0,0,1,97.5,97.33Zm0-6.28a2.07,2.07,0,1,0,2.06,2.07A2.07,2.07,0,0,0,97.5,91.05Z"/><rect x="103.4" y="89.15" width="2.14" height="7.95"/><path d="M102.33,87.6a4.21,4.21,0,1,1,4.2-4.21A4.22,4.22,0,0,1,102.33,87.6Zm0-6.28a2.07,2.07,0,1,0,2.06,2.07A2.07,2.07,0,0,0,102.33,81.32Z"/><rect x="94.21" y="79.42" width="2.14" height="7.95"/><path d="M74.8,107.52a4.21,4.21,0,1,1,4.21-4.2A4.2,4.2,0,0,1,74.8,107.52Zm0-6.27a2.07,2.07,0,1,0,2.07,2.07A2.07,2.07,0,0,0,74.8,101.25Z"/><rect x="80.48" y="99.34" width="2.14" height="7.95"/><path d="M88.38,107.52a4.21,4.21,0,1,1,4.2-4.2A4.21,4.21,0,0,1,88.38,107.52Zm0-6.27a2.07,2.07,0,1,0,2.07,2.07A2.07,2.07,0,0,0,88.38,101.25Z"/><path d="M97.86,107.52a4.21,4.21,0,1,1,4.21-4.2A4.2,4.2,0,0,1,97.86,107.52Zm0-6.27a2.07,2.07,0,1,0,2.07,2.07A2.07,2.07,0,0,0,97.86,101.25Z"/><rect x="103.42" y="99.34" width="2.14" height="7.95"/><path class="cls-4" d="M104.54,141l-1-3.71a18,18,0,0,1-3.26-1.63l-3.61,1.38-.93-.81a22.09,22.09,0,0,1-3.91-4.52l-.68-1,1.9-3.39a18.29,18.29,0,0,1-1.15-3.44l-3.52-1.56-.09-1.22a20.32,20.32,0,0,1,0-3,20.56,20.56,0,0,1,.42-3L89,113.9l3.7-1.05a18.9,18.9,0,0,1,1.63-3.24L92.89,106l.82-.93a21.76,21.76,0,0,1,4.52-3.91l1-.67,3.37,1.89a18,18,0,0,1,3.46-1.16l1.57-3.52,1.22-.08a21.6,21.6,0,0,1,3,0,21,21,0,0,1,3,.43l1.2.26,1,3.72a18.2,18.2,0,0,1,3.24,1.63l3.62-1.4.93.82a22.47,22.47,0,0,1,3.91,4.5l.68,1-1.9,3.39a18.63,18.63,0,0,1,1.15,3.45l3.51,1.56.09,1.22a20.16,20.16,0,0,1,0,3,20.7,20.7,0,0,1-.43,3l-.26,1.19-3.7,1a18.9,18.9,0,0,1-1.63,3.24l1.39,3.63-.82.93a22.1,22.1,0,0,1-4.52,3.9l-1,.67L118,137a19,19,0,0,1-3.44,1.14L113,141.62l-1.22.09a21.6,21.6,0,0,1-3,0,22,22,0,0,1-3-.43Z"/><path class="cls-6" d="M107.09,128.62a9.52,9.52,0,1,1,10.41-15.19,9.43,9.43,0,0,1,2.29,6.91h0a9.5,9.5,0,0,1-10.17,8.81A9.19,9.19,0,0,1,107.09,128.62Z"/></g></g></svg>