<svg xmlns="http://www.w3.org/2000/svg" viewBox="0 0 55 51.05"><defs><style>.cls-1{fill:#fff;}</style></defs><title>ico-ada</title><g id="图层_2" data-name="图层 2"><g id="图层_1-2" data-name="图层 1"><g id="_编组_" data-name="&lt;编组&gt;"><g id="_编组_2" data-name="&lt;编组&gt;"><g id="_编组_3" data-name="&lt;编组&gt;"><path id="_路径_" data-name="&lt;路径&gt;" class="cls-1" d="M29.53,10.48a1.94,1.94,0,0,1-2,2,2,2,0,0,1-2.06-2.09,2.07,2.07,0,0,1,2.08-2A2,2,0,0,1,29.53,10.48Z"/></g></g><g id="_编组_4" data-name="&lt;编组&gt;"><g id="_编组_5" data-name="&lt;编组&gt;"><path id="_路径_2" data-name="&lt;路径&gt;" class="cls-1" d="M14.5,20a2,2,0,0,1-2.05-2,2.08,2.08,0,0,1,2-2.11,2,2,0,0,1,2,2.1A1.92,1.92,0,0,1,14.5,20Z"/></g></g><g id="_编组_6" data-name="&lt;编组&gt;"><g id="_编组_7" data-name="&lt;编组&gt;"><path id="_路径_3" data-name="&lt;路径&gt;" class="cls-1" d="M14.5,35.12a2,2,0,0,1-2.05-2,2.08,2.08,0,0,1,2-2.11,2,2,0,0,1,2,2.1A1.92,1.92,0,0,1,14.5,35.12Z"/></g></g><g id="_编组_8" data-name="&lt;编组&gt;"><g id="_编组_9" data-name="&lt;编组&gt;"><path id="_路径_4" data-name="&lt;路径&gt;" class="cls-1" d="M27.39,42.68a2.17,2.17,0,0,1-2.07-2.06,2.09,2.09,0,0,1,2.18-2,2,2,0,0,1,2,2.09A2.15,2.15,0,0,1,27.39,42.68Z"/></g></g><g id="_编组_10" data-name="&lt;编组&gt;"><g id="_编组_11" data-name="&lt;编组&gt;"><path id="_路径_5" data-name="&lt;路径&gt;" class="cls-1" d="M42.68,33.07A2.07,2.07,0,1,1,40.61,31,2.07,2.07,0,0,1,42.68,33.07Z"/></g></g><g id="_编组_12" data-name="&lt;编组&gt;"><g id="_编组_13" data-name="&lt;编组&gt;"><path id="_路径_6" data-name="&lt;路径&gt;" class="cls-1" d="M42.68,18a2.07,2.07,0,1,1-2.07-2.07A2.07,2.07,0,0,1,42.68,18Z"/></g></g><g id="_编组_14" data-name="&lt;编组&gt;"><g id="_编组_15" data-name="&lt;编组&gt;"><path id="_路径_7" data-name="&lt;路径&gt;" class="cls-1" d="M26.77,33.19a3.61,3.61,0,1,1-3.61-3.61A3.6,3.6,0,0,1,26.77,33.19Z"/></g></g><g id="_编组_16" data-name="&lt;编组&gt;"><g id="_编组_17" data-name="&lt;编组&gt;"><path id="_路径_8" data-name="&lt;路径&gt;" class="cls-1" d="M26.77,17.85a3.61,3.61,0,1,1-3.61-3.62A3.61,3.61,0,0,1,26.77,17.85Z"/></g></g><g id="_编组_18" data-name="&lt;编组&gt;"><g id="_编组_19" data-name="&lt;编组&gt;"><path id="_路径_9" data-name="&lt;路径&gt;" class="cls-1" d="M35.44,33.19a3.61,3.61,0,1,1-3.61-3.61A3.6,3.6,0,0,1,35.44,33.19Z"/></g></g><g id="_编组_20" data-name="&lt;编组&gt;"><g id="_编组_21" data-name="&lt;编组&gt;"><path id="_路径_10" data-name="&lt;路径&gt;" class="cls-1" d="M35.44,17.85a3.61,3.61,0,1,1-3.61-3.62A3.61,3.61,0,0,1,35.44,17.85Z"/></g></g><g id="_编组_22" data-name="&lt;编组&gt;"><g id="_编组_23" data-name="&lt;编组&gt;"><path id="_路径_11" data-name="&lt;路径&gt;" class="cls-1" d="M39.92,25.53a3.62,3.62,0,1,1-3.61-3.61A3.62,3.62,0,0,1,39.92,25.53Z"/></g></g><g id="_编组_24" data-name="&lt;编组&gt;"><g id="_编组_25" data-name="&lt;编组&gt;"><circle id="_路径_12" data-name="&lt;路径&gt;" class="cls-1" cx="18.74" cy="25.53" r="3.61"/></g></g><g id="_编组_26" data-name="&lt;编组&gt;"><g id="_编组_27" data-name="&lt;编组&gt;"><path id="_路径_13" data-name="&lt;路径&gt;" class="cls-1" d="M19.48,8.55a1.71,1.71,0,1,1-1.71-1.71A1.71,1.71,0,0,1,19.48,8.55Z"/></g></g><g id="_编组_28" data-name="&lt;编组&gt;"><g id="_编组_29" data-name="&lt;编组&gt;"><path id="_路径_14" data-name="&lt;路径&gt;" class="cls-1" d="M9.71,25.53A1.71,1.71,0,1,1,8,23.83,1.71,1.71,0,0,1,9.71,25.53Z"/></g></g><g id="_编组_30" data-name="&lt;编组&gt;"><g id="_编组_31" data-name="&lt;编组&gt;"><path id="_路径_15" data-name="&lt;路径&gt;" class="cls-1" d="M48.75,25.53a1.71,1.71,0,1,1-1.7-1.7A1.7,1.7,0,0,1,48.75,25.53Z"/></g></g><g id="_编组_32" data-name="&lt;编组&gt;"><g id="_编组_33" data-name="&lt;编组&gt;"><path id="_路径_16" data-name="&lt;路径&gt;" class="cls-1" d="M39,8.55a1.71,1.71,0,1,1-1.71-1.71A1.71,1.71,0,0,1,39,8.55Z"/></g></g><g id="_编组_34" data-name="&lt;编组&gt;"><g id="_编组_35" data-name="&lt;编组&gt;"><circle id="_路径_17" data-name="&lt;路径&gt;" class="cls-1" cx="17.77" cy="42.49" r="1.71"/></g></g><g id="_编组_36" data-name="&lt;编组&gt;"><g id="_编组_37" data-name="&lt;编组&gt;"><path id="_路径_18" data-name="&lt;路径&gt;" class="cls-1" d="M39,42.49a1.71,1.71,0,1,1-1.71-1.71A1.71,1.71,0,0,1,39,42.49Z"/></g></g><g id="_编组_38" data-name="&lt;编组&gt;"><g id="_编组_39" data-name="&lt;编组&gt;"><path id="_路径_19" data-name="&lt;路径&gt;" class="cls-1" d="M39,42.49a1.71,1.71,0,1,1-1.71-1.71A1.71,1.71,0,0,1,39,42.49Z"/></g></g><g id="_编组_40" data-name="&lt;编组&gt;"><g id="_编组_41" data-name="&lt;编组&gt;"><path id="_路径_20" data-name="&lt;路径&gt;" class="cls-1" d="M15.36,2.59A1.06,1.06,0,1,1,14.3,1.53,1.06,1.06,0,0,1,15.36,2.59Z"/></g></g><g id="_编组_42" data-name="&lt;编组&gt;"><g id="_编组_43" data-name="&lt;编组&gt;"><path id="_路径_21" data-name="&lt;路径&gt;" class="cls-1" d="M41.78,2.59a1.07,1.07,0,1,1-1.06-1.06A1.07,1.07,0,0,1,41.78,2.59Z"/></g></g><g id="_编组_44" data-name="&lt;编组&gt;"><g id="_编组_45" data-name="&lt;编组&gt;"><circle id="_路径_22" data-name="&lt;路径&gt;" class="cls-1" cx="14.3" cy="48.54" r="1.06"/></g></g><g id="_编组_46" data-name="&lt;编组&gt;"><g id="_编组_47" data-name="&lt;编组&gt;"><path id="_路径_23" data-name="&lt;路径&gt;" class="cls-1" d="M41.78,48.54a1.07,1.07,0,1,1-1.06-1.06A1.07,1.07,0,0,1,41.78,48.54Z"/></g></g><g id="_编组_48" data-name="&lt;编组&gt;"><g id="_编组_49" data-name="&lt;编组&gt;"><path id="_路径_24" data-name="&lt;路径&gt;" class="cls-1" d="M55,25.53a1.07,1.07,0,1,1-1.06-1.06A1.07,1.07,0,0,1,55,25.53Z"/></g></g><g id="_编组_50" data-name="&lt;编组&gt;"><g id="_编组_51" data-name="&lt;编组&gt;"><path id="_路径_25" data-name="&lt;路径&gt;" class="cls-1" d="M2.13,25.53a1.07,1.07,0,1,1-1.07-1.06A1.07,1.07,0,0,1,2.13,25.53Z"/></g></g><g id="_编组_52" data-name="&lt;编组&gt;"><g id="_编组_53" data-name="&lt;编组&gt;"><path id="_路径_26" data-name="&lt;路径&gt;" class="cls-1" d="M28.89,1.41A1.41,1.41,0,1,1,27.48,0,1.41,1.41,0,0,1,28.89,1.41Z"/></g></g><g id="_编组_54" data-name="&lt;编组&gt;"><g id="_编组_55" data-name="&lt;编组&gt;"><path id="_路径_27" data-name="&lt;路径&gt;" class="cls-1" d="M28.89,49.64a1.41,1.41,0,1,1-1.41-1.41A1.41,1.41,0,0,1,28.89,49.64Z"/></g></g><g id="_编组_56" data-name="&lt;编组&gt;"><g id="_编组_57" data-name="&lt;编组&gt;"><path id="_路径_28" data-name="&lt;路径&gt;" class="cls-1" d="M8.11,37.63a1.41,1.41,0,1,1-1.4-1.4A1.41,1.41,0,0,1,8.11,37.63Z"/></g></g><g id="_编组_58" data-name="&lt;编组&gt;"><g id="_编组_59" data-name="&lt;编组&gt;"><path id="_路径_29" data-name="&lt;路径&gt;" class="cls-1" d="M49.79,37.56a1.41,1.41,0,1,1-1.41-1.41A1.41,1.41,0,0,1,49.79,37.56Z"/></g></g><g id="_编组_60" data-name="&lt;编组&gt;"><g id="_编组_61" data-name="&lt;编组&gt;"><path id="_路径_30" data-name="&lt;路径&gt;" class="cls-1" d="M49.72,13.42A1.41,1.41,0,1,1,48.31,12,1.41,1.41,0,0,1,49.72,13.42Z"/></g></g><g id="_编组_62" data-name="&lt;编组&gt;"><g id="_编组_63" data-name="&lt;编组&gt;"><path id="_路径_31" data-name="&lt;路径&gt;" class="cls-1" d="M8.12,13.52a1.41,1.41,0,1,1-1.41-1.41A1.41,1.41,0,0,1,8.12,13.52Z"/></g></g></g></g></g></svg>