<?xml version="1.0" encoding="utf-8"?>
<!-- Generator: Adobe Illustrator 22.0.1, SVG Export Plug-In . SVG Version: 6.00 Build 0)  -->
<svg version="1.1" id="图层_1" xmlns="http://www.w3.org/2000/svg" xmlns:xlink="http://www.w3.org/1999/xlink" x="0px" y="0px"
	 viewBox="0 0 168.3 46" style="enable-background:new 0 0 168.3 46;" xml:space="preserve">
<style type="text/css">
	.st0{fill:#FFFFFF;}
	.st1{fill:none;}
</style>
<title>logo</title>
<g id="图层_2_1_">
	<g id="图层_1-2">
		<path class="st0" d="M163.9,34.1c-5.2,7-15.2,8.5-22.2,3.3s-8.5-15.2-3.3-22.2s15.2-8.5,22.2-3.3c1.2,0.9,2.3,2,3.2,3.2l4.5-3.1
			c-7-9.5-20.4-11.5-29.9-4.4c-9.5,7-11.5,20.4-4.4,29.9c7,9.5,20.4,11.5,29.9,4.4c1.7-1.3,3.2-2.8,4.5-4.5L163.9,34.1z"/>
		<path class="st0" d="M110.4,0l-3,6.4L89,46h6l4.2-9.1h22.3l4.2,9.1h6L113.3,6.4L110.4,0z M101.8,31.4l8.6-18.5l8.6,18.5H101.8z"/>
		<polygon class="st0" points="21.3,24.7 5.9,9.2 5.5,8.8 0,3.3 0,3.3 0,11.1 0,46 5.5,46 5.5,16.6 17.5,28.6 21.3,32.4 25.2,28.6 
			37.2,16.6 37.2,46 42.7,46 42.7,11.1 42.7,3.3 37.2,8.8 		"/>
		<path class="st0" d="M69.5,3.3c-11.8,0-21.3,9.6-21.3,21.3S57.7,46,69.5,46s21.3-9.6,21.3-21.3c0,0,0,0,0,0
			C90.8,12.9,81.3,3.3,69.5,3.3z M69.5,40.5c-8.8,0-15.9-7.1-15.9-15.9c0-8.8,7.1-15.9,15.9-15.9s15.9,7.1,15.9,15.9c0,0,0,0,0,0
			C85.3,33.4,78.2,40.5,69.5,40.5z"/>
		<circle class="st0" cx="78.5" cy="15.6" r="1.5"/>
		<circle class="st0" cx="78.5" cy="33.7" r="1.5"/>
		<circle class="st0" cx="60.4" cy="15.6" r="1.5"/>
		<circle class="st0" cx="56.7" cy="24.6" r="0.7"/>
		<circle class="st0" cx="69.5" cy="37.5" r="0.7"/>
		<circle class="st0" cx="82.3" cy="24.6" r="0.7"/>
		<circle class="st0" cx="69.5" cy="11.9" r="0.7"/>
		<circle class="st0" cx="69.5" cy="15.6" r="0.7"/>
		<circle class="st0" cx="60.4" cy="33.7" r="1.5"/>
		<circle class="st0" cx="69.5" cy="33.7" r="1.5"/>
		<rect x="78.2" y="15.6" class="st0" width="0.6" height="18.1"/>
		<line class="st1" x1="60.4" y1="15.6" x2="78.5" y2="15.6"/>
		<rect x="60.4" y="15.5" class="st0" width="18.1" height="0.2"/>
		
			<rect x="73.9" y="14.5" transform="matrix(0.8947 -0.4467 0.4467 0.8947 -3.2143 35.6498)" class="st0" width="0.2" height="20.2"/>
		
			<rect x="54.9" y="24.6" transform="matrix(0.4473 -0.8944 0.8944 0.4473 13.863 71.7276)" class="st0" width="20.2" height="0.2"/>
		<rect x="60.2" y="15.6" class="st0" width="0.5" height="18.1"/>
		<line class="st1" x1="78.5" y1="33.7" x2="60.4" y2="33.7"/>
		<rect x="60.4" y="33.6" class="st0" width="18.1" height="0.2"/>
		
			<rect x="64.7" y="14.5" transform="matrix(0.8944 -0.4473 0.4473 0.8944 -4.1602 31.6574)" class="st0" width="0.6" height="20.2"/>
		
			<rect x="63.9" y="24.4" transform="matrix(0.4473 -0.8944 0.8944 0.4473 18.8596 79.8048)" class="st0" width="20.2" height="0.5"/>
		<rect x="53.7" y="20" transform="matrix(0.3825 -0.9239 0.9239 0.3825 17.5658 66.5319)" class="st0" width="9.8" height="0.2"/>
		<polygon class="st0" points="60.3,33.7 56.6,24.7 56.8,24.6 60.5,33.6 		"/>
		<rect x="69.4" y="33.7" class="st0" width="0.2" height="3.8"/>
		<rect x="69.4" y="11.8" class="st0" width="0.2" height="3.8"/>
		<rect x="60.1" y="13.6" transform="matrix(0.9239 -0.3825 0.3825 0.9239 -0.3142 25.894)" class="st0" width="9.8" height="0.2"/>
		<rect x="73.9" y="8.8" transform="matrix(0.3825 -0.9239 0.9239 0.3825 32.9931 76.8506)" class="st0" width="0.2" height="9.8"/>
		
			<rect x="79.9" y="15.4" transform="matrix(0.9243 -0.3818 0.3818 0.9243 -1.6852 32.0884)" class="st0" width="0.2" height="9.8"/>
		
			<rect x="75.5" y="29.1" transform="matrix(0.3825 -0.9239 0.9239 0.3825 22.6769 92.2839)" class="st0" width="9.8" height="0.2"/>
		
			<rect x="69.1" y="35.5" transform="matrix(0.9232 -0.3843 0.3843 0.9232 -7.9851 31.1738)" class="st0" width="9.8" height="0.2"/>
		<polygon class="st0" points="69.4,37.5 60.4,33.8 60.4,33.6 69.5,37.4 		"/>
	</g>
</g>
</svg>
