<svg xmlns="http://www.w3.org/2000/svg" viewBox="0 0 25 23.11"><defs><style>.cls-1{fill:#666;}</style></defs><title>ico-earth</title><g id="图层_2" data-name="图层 2"><g id="图层_1-2" data-name="图层 1"><path class="cls-1" d="M18.8,7.16A.37.37,0,0,0,18.3,7a.36.36,0,0,0-.13.5,7.7,7.7,0,0,1,1.12,3.61h-3a13.22,13.22,0,0,0-1-4.92,9,9,0,0,0,1.44-.5,8.14,8.14,0,0,1,.81.85.37.37,0,0,0,.52,0,.36.36,0,0,0,.05-.51,8.62,8.62,0,0,0-15,3.37h0A8.62,8.62,0,1,0,18.8,7.16ZM11.05,3.77V6a13.87,13.87,0,0,1-2.36-.25A3.71,3.71,0,0,1,11.05,3.77ZM7.3,11.15a12.19,12.19,0,0,1,1-4.74,14.89,14.89,0,0,0,2.71.31v4.43Zm3.75.73v4.64a14.89,14.89,0,0,0-2.71.31,12.43,12.43,0,0,1-1-4.95ZM9,4.11A6.49,6.49,0,0,0,7.94,5.57a9.6,9.6,0,0,1-1.11-.36A7.85,7.85,0,0,1,9,4.11ZM6.17,5.74a10.59,10.59,0,0,0,1.44.49,13.3,13.3,0,0,0-1,4.92h-3A7.86,7.86,0,0,1,6.17,5.74ZM3.54,11.88h3A13.28,13.28,0,0,0,7.61,17a10.61,10.61,0,0,0-1.44.5A7.85,7.85,0,0,1,3.54,11.88ZM6.83,18c.35-.14.73-.25,1.11-.36A7,7,0,0,0,9,19.13,7.71,7.71,0,0,1,6.83,18Zm4.22,1.45a3.61,3.61,0,0,1-2.36-2,15,15,0,0,1,2.36-.25Zm4.49-8.33H11.79V6.72a14.89,14.89,0,0,0,2.71-.31A12.19,12.19,0,0,1,15.54,11.15ZM16,5.21c-.36.14-.74.25-1.12.36a6.49,6.49,0,0,0-1.07-1.46A7.9,7.9,0,0,1,16,5.21ZM11.79,3.77a3.67,3.67,0,0,1,2.36,2A14,14,0,0,1,11.79,6Zm0,8.11h3.76a12.43,12.43,0,0,1-1.05,4.95,14.89,14.89,0,0,0-2.71-.31Zm0,7.6V17.25a15.09,15.09,0,0,1,2.36.25A3.69,3.69,0,0,1,11.79,19.48Zm2-.35a6.49,6.49,0,0,0,1.07-1.46c.38.11.76.22,1.11.36A7.84,7.84,0,0,1,13.83,19.13Zm2.84-1.62a10.61,10.61,0,0,0-1.44-.5,13.28,13.28,0,0,0,1.05-5.13h3A7.88,7.88,0,0,1,16.67,17.51Z"/><path class="cls-1" d="M24.89,9.89a.36.36,0,0,0-.51,0L23.1,11.17A11.55,11.55,0,0,0,4.67,2.3a11.39,11.39,0,0,0-3,3.33,11.55,11.55,0,1,0,20.85,9.61.38.38,0,0,0-.23-.47.38.38,0,0,0-.47.23,10.82,10.82,0,1,1,.55-3.85L21.1,9.89a.36.36,0,0,0-.51,0,.36.36,0,0,0,0,.52l1.89,1.9a.37.37,0,0,0,.52,0l1.89-1.9A.36.36,0,0,0,24.89,9.89Z"/></g></g></svg>