<svg xmlns="http://www.w3.org/2000/svg" viewBox="0 0 168.34 46"><defs><style>.cls-1{fill:#1a1a1a;}</style></defs><title>logo</title><g id="图层_2" data-name="图层 2"><g id="图层_1-2" data-name="图层 1"><path class="cls-1" d="M163.87,34.1a15.87,15.87,0,1,1-.05-19L168.29,12a21.34,21.34,0,1,0,.05,25.34Z"/><path class="cls-1" d="M110.36,0l-3,6.43L89,46h6l4.24-9.14h22.26L125.73,46h6L113.34,6.43Zm-8.59,31.39,8.59-18.52L119,31.39Z"/><polygon class="cls-1" points="21.34 24.68 5.9 9.23 5.47 8.8 0 3.32 0 3.33 0 11.09 0 45.99 5.47 45.99 5.47 16.56 17.46 28.56 21.34 32.44 25.22 28.56 37.2 16.56 37.2 45.99 42.68 45.99 42.68 11.09 42.68 3.33 37.2 8.8 21.34 24.68"/><path class="cls-1" d="M69.48,3.32A21.34,21.34,0,1,0,90.82,24.66,21.35,21.35,0,0,0,69.48,3.32Zm0,37.21A15.87,15.87,0,1,1,85.35,24.66,15.88,15.88,0,0,1,69.48,40.53Z"/><circle class="cls-1" cx="78.51" cy="15.6" r="1.49"/><circle class="cls-1" cx="78.51" cy="33.68" r="1.49"/><circle class="cls-1" cx="60.44" cy="15.6" r="1.49"/><circle class="cls-1" cx="56.69" cy="24.64" r="0.74"/><circle class="cls-1" cx="69.49" cy="37.45" r="0.74"/><circle class="cls-1" cx="82.27" cy="24.64" r="0.74"/><circle class="cls-1" cx="69.49" cy="11.87" r="0.74"/><circle class="cls-1" cx="69.49" cy="15.6" r="0.74"/><circle class="cls-1" cx="60.44" cy="33.68" r="1.49"/><circle class="cls-1" cx="69.48" cy="33.68" r="1.49"/><rect class="cls-1" x="78.24" y="15.6" width="0.55" height="18.07"/><line class="cls-1" x1="60.44" y1="15.6" x2="78.51" y2="15.6"/><rect class="cls-1" x="60.44" y="15.51" width="18.07" height="0.18"/><rect class="cls-1" x="73.91" y="14.54" width="0.18" height="20.2" transform="translate(-3.21 35.65) rotate(-26.53)"/><rect class="cls-1" x="54.86" y="24.55" width="20.21" height="0.18" transform="translate(13.87 71.73) rotate(-63.43)"/><rect class="cls-1" x="60.16" y="15.6" width="0.55" height="18.07"/><line class="cls-1" x1="78.51" y1="33.68" x2="60.44" y2="33.68"/><rect class="cls-1" x="60.44" y="33.59" width="18.07" height="0.18"/><rect class="cls-1" x="64.68" y="14.54" width="0.55" height="20.21" transform="translate(-4.16 31.65) rotate(-26.57)"/><rect class="cls-1" x="63.89" y="24.37" width="20.21" height="0.55" transform="translate(18.86 79.8) rotate(-63.43)"/><rect class="cls-1" x="53.66" y="20.04" width="9.8" height="0.18" transform="translate(17.56 66.53) rotate(-67.51)"/><polygon class="cls-1" points="60.35 33.71 56.6 24.69 56.77 24.62 60.52 33.64 60.35 33.71"/><rect class="cls-1" x="69.39" y="33.68" width="0.18" height="3.77"/><rect class="cls-1" x="69.39" y="11.83" width="0.18" height="3.77"/><rect class="cls-1" x="60.07" y="13.64" width="9.78" height="0.18" transform="translate(-0.31 25.9) rotate(-22.49)"/><rect class="cls-1" x="73.9" y="8.84" width="0.18" height="9.79" transform="translate(33 76.85) rotate(-67.51)"/><rect class="cls-1" x="80.3" y="15.23" width="0.18" height="9.8" transform="matrix(0.92, -0.38, 0.38, 0.92, -1.58, 32.32)"/><rect class="cls-1" x="75.49" y="29.09" width="9.8" height="0.18" transform="translate(22.67 92.29) rotate(-67.51)"/><rect class="cls-1" x="69.1" y="35.47" width="9.82" height="0.18" transform="translate(-7.98 31.18) rotate(-22.6)"/><polygon class="cls-1" points="69.44 37.53 60.37 33.76 60.44 33.59 69.51 37.36 69.44 37.53"/></g></g></svg>