<svg xmlns="http://www.w3.org/2000/svg" viewBox="0 0 110.19 30.11"><defs><style>.cls-1{fill:#1a1a1a;}</style></defs><title>moac</title><g id="图层_2" data-name="图层 2"><g id="图层_1-2" data-name="图层 1"><path class="cls-1" d="M107.26,22.32a10.38,10.38,0,1,1,0-12.4l2.92-2.09a14,14,0,1,0,0,16.58Z"/><path class="cls-1" d="M72.24,0l-2,4.21-12,25.9h3.91l2.77-6H79.52l2.78,6h3.9l-12-25.9ZM66.61,20.55,72.24,8.42l5.62,12.13Z"/><polygon class="cls-1" points="13.97 16.15 3.86 6.04 3.58 5.76 0 2.17 0 2.18 0 7.26 0 30.1 3.58 30.1 3.58 10.84 11.43 18.69 13.97 21.23 16.5 18.69 24.35 10.84 24.35 30.1 27.93 30.1 27.93 7.26 27.93 2.18 24.35 5.76 13.97 16.15"/><path class="cls-1" d="M45.48,2.18a14,14,0,1,0,14,14A14,14,0,0,0,45.48,2.18Zm0,24.35A10.39,10.39,0,1,1,55.86,16.14,10.39,10.39,0,0,1,45.48,26.53Z"/><circle class="cls-1" cx="51.39" cy="10.21" r="0.97"/><circle class="cls-1" cx="51.39" cy="22.04" r="0.97"/><circle class="cls-1" cx="39.56" cy="10.21" r="0.97"/><circle class="cls-1" cx="37.1" cy="16.13" r="0.49"/><circle class="cls-1" cx="45.48" cy="24.52" r="0.49"/><circle class="cls-1" cx="53.85" cy="16.13" r="0.49"/><circle class="cls-1" cx="45.48" cy="7.77" r="0.49"/><circle class="cls-1" cx="45.48" cy="10.21" r="0.49"/><circle class="cls-1" cx="39.56" cy="22.04" r="0.97"/><circle class="cls-1" cx="45.48" cy="22.04" r="0.97"/><rect class="cls-1" x="51.21" y="10.21" width="0.36" height="11.83"/><line class="cls-1" x1="39.56" y1="10.21" x2="51.39" y2="10.21"/><rect class="cls-1" x="39.56" y="10.15" width="11.83" height="0.12"/><rect class="cls-1" x="48.38" y="9.52" width="0.12" height="13.22" transform="translate(-2.1 23.33) rotate(-26.53)"/><rect class="cls-1" x="35.91" y="16.07" width="13.23" height="0.12" transform="translate(9.08 46.95) rotate(-63.43)"/><rect class="cls-1" x="39.38" y="10.21" width="0.36" height="11.83"/><line class="cls-1" x1="51.39" y1="22.04" x2="39.56" y2="22.04"/><rect class="cls-1" x="39.56" y="21.98" width="11.83" height="0.12"/><rect class="cls-1" x="42.34" y="9.52" width="0.36" height="13.23" transform="translate(-2.72 20.72) rotate(-26.57)"/><rect class="cls-1" x="41.82" y="15.95" width="13.23" height="0.36" transform="translate(12.35 52.23) rotate(-63.43)"/><rect class="cls-1" x="35.12" y="13.12" width="6.41" height="0.12" transform="translate(11.49 43.55) rotate(-67.51)"/><polygon class="cls-1" points="39.51 22.07 37.05 16.16 37.16 16.11 39.62 22.02 39.51 22.07"/><rect class="cls-1" x="45.42" y="22.04" width="0.12" height="2.47"/><rect class="cls-1" x="45.42" y="7.75" width="0.12" height="2.47"/><rect class="cls-1" x="39.32" y="8.93" width="6.4" height="0.12" transform="translate(-0.2 16.95) rotate(-22.49)"/><rect class="cls-1" x="48.37" y="5.79" width="0.12" height="6.41" transform="translate(21.6 50.3) rotate(-67.51)"/><rect class="cls-1" x="52.56" y="9.97" width="0.12" height="6.41" transform="translate(-1.03 21.15) rotate(-22.51)"/><rect class="cls-1" x="49.41" y="19.04" width="6.42" height="0.12" transform="translate(14.84 60.41) rotate(-67.51)"/><rect class="cls-1" x="45.23" y="23.22" width="6.43" height="0.12" transform="translate(-5.23 20.41) rotate(-22.6)"/><polygon class="cls-1" points="45.45 24.57 39.52 22.1 39.56 21.99 45.5 24.46 45.45 24.57"/></g></g></svg>