<svg xmlns="http://www.w3.org/2000/svg" viewBox="0 0 80 56.86" class="svg-play">
	<defs>
		<style>.svg-play .cls-1 {
	fill: #fff;
}
.svg-play .cls-2 {
	fill: #1a1a1a;
}</style>
	</defs>
	<g>
		<g>
			<path class="cls-1" d="M79.32,42.76c-.43,5.33-4.47,12.13-10.13,13.12a432.28,432.28,0,0,1-58.37,0C5,55.14,1.12,48.08.68,42.76A151.62,151.62,0,0,1,.68,14c.44-5.32,4.38-12.33,10.14-13C29.37-.51,51-.18,69.19,1.05c6.52.24,9.7,7,10.13,12.28A159,159,0,0,1,79.32,42.76Z"/>
			<polygon class="cls-2" points="32 44.44 56 28.43 32 12.43 32 44.44"/>
		</g>
	</g>
</svg>