<svg xmlns="http://www.w3.org/2000/svg" viewBox="0 0 186.3 186.3"><defs><style>.cls-1{fill:none;}.cls-2,.cls-4,.cls-6{fill:#fff;}.cls-2,.cls-6,.cls-7,.cls-8{stroke:#000;stroke-miterlimit:10;}.cls-2,.cls-7{stroke-width:1.62px;}.cls-3,.cls-7,.cls-8{fill:#03c0b7;}.cls-5{fill:#d2d2d2;}.cls-6{stroke-width:1.82px;}.cls-8{stroke-width:1.25px;}</style></defs><title>svg002</title><g id="图层_2" data-name="图层 2"><g id="图层_1-2" data-name="图层 1"><rect class="cls-1" width="186.3" height="186.3"/><path class="cls-2" d="M22.7,36.64H162a4.08,4.08,0,0,1,4.08,4.08v99.16a0,0,0,0,1,0,0H18.61a0,0,0,0,1,0,0V40.72A4.08,4.08,0,0,1,22.7,36.64Z"/><rect class="cls-2" x="22.25" y="153.89" width="14.13" height="9.16" rx="0.58" ry="0.58"/><rect class="cls-2" x="147.97" y="153.89" width="14.13" height="9.16" rx="0.58" ry="0.58"/><path class="cls-3" d="M8.73,140.15H175.62a0,0,0,0,1,0,0v11.66a3.71,3.71,0,0,1-3.71,3.71H12.44a3.71,3.71,0,0,1-3.71-3.71V140.15a0,0,0,0,1,0,0Z"/><path class="cls-4" d="M175.63,140.15v4.79a10.58,10.58,0,0,1-10.58,10.58H133.52V140.15Z"/><path class="cls-4" d="M50.83,140.15v15.37H19.29A10.57,10.57,0,0,1,8.74,144.94v-4.79Z"/><path class="cls-5" d="M49.86,22.28h86.36a0,0,0,0,1,0,0v132a0,0,0,0,1,0,0H49.86a1.36,1.36,0,0,1-1.36-1.36V23.64A1.36,1.36,0,0,1,49.86,22.28Z" transform="translate(180.62 -4.1) rotate(90)"/><path class="cls-2" d="M165.05,158.13H19.3A13.2,13.2,0,0,1,6.12,145V140H178.23V145A13.2,13.2,0,0,1,165.05,158.13Z"/><path class="cls-6" d="M133.52,158.24v0Z"/><path class="cls-6" d="M50.83,158.24v0Z"/><path d="M163.43,147.83a3.28,3.28,0,1,0-3.27,3.28A3.26,3.26,0,0,0,163.43,147.83Z"/><path d="M27.68,147.83a3.28,3.28,0,1,0-3.27,3.28A3.26,3.26,0,0,0,27.68,147.83Z"/><circle class="cls-7" cx="93.3" cy="69.86" r="42.06" transform="translate(-6.95 129.33) rotate(-67.5)"/><circle class="cls-5" cx="93.3" cy="69.86" r="42.06" transform="translate(-6.95 129.33) rotate(-67.5)"/><circle class="cls-8" cx="93.3" cy="69.86" r="32.45" transform="translate(-6.95 129.33) rotate(-67.5)"/><path d="M93.3,114.35a44.49,44.49,0,1,1,44.49-44.49A44.54,44.54,0,0,1,93.3,114.35Zm0-84.12a39.64,39.64,0,1,0,39.64,39.63A39.68,39.68,0,0,0,93.3,30.23Z"/><path d="M93.3,114.35a44.49,44.49,0,1,1,44.49-44.49A44.54,44.54,0,0,1,93.3,114.35Zm0-84.12a39.64,39.64,0,1,0,39.64,39.63A39.68,39.68,0,0,0,93.3,30.23Z"/><circle class="cls-4" cx="132.25" cy="30.46" r="6.16" transform="translate(17.2 102.43) rotate(-45)"/><circle class="cls-4" cx="54.08" cy="110.32" r="6.16" transform="translate(-62.17 70.55) rotate(-45)"/><path d="M48.46,107a58.22,58.22,0,0,1,74.11-87.45l-2.44,4.19a53.37,53.37,0,0,0-67.94,80.16Z"/><path d="M123.51,21A3.06,3.06,0,1,0,120.45,24,3.06,3.06,0,0,0,123.51,21Z"/><path d="M54.08,118.91a8.59,8.59,0,1,1,8.59-8.59A8.6,8.6,0,0,1,54.08,118.91Zm0-12.33a3.74,3.74,0,1,0,3.73,3.74A3.74,3.74,0,0,0,54.08,106.58Z"/><path d="M91.21,128.44q-.72,0-1.44-.06l.29-4.85a53.32,53.32,0,0,0,5.51,0l.21,4.85C94.27,128.49,92.74,128.5,91.21,128.44Zm-7.41-.72a58.54,58.54,0,0,1-5.88-1.26l1.27-4.69a54.4,54.4,0,0,0,5.39,1.17Zm18,.13-.71-4.8a52.14,52.14,0,0,0,5.4-1.09l1.21,4.7A56.53,56.53,0,0,1,101.76,127.85Zm11.64-3-1.69-4.55a53.92,53.92,0,0,0,5.06-2.18l2.15,4.35C117.13,123.37,115.27,124.17,113.4,124.87Zm10.76-5.32-2.58-4.1a52.82,52.82,0,0,0,4.5-3.18l3,3.82A56.43,56.43,0,0,1,124.16,119.55Zm9.45-7.4-3.37-3.5a53,53,0,0,0,3.77-4l3.71,3.13C136.43,109.28,135.05,110.76,133.61,112.15Zm7.74-9.18-4-2.73c1-1.52,2-3.1,2.86-4.71l4.27,2.3A57.67,57.67,0,0,1,141.35,103ZM147,92.39l-4.49-1.84a51.59,51.59,0,0,0,1.83-5.19L149,86.72A57.74,57.74,0,0,1,147,92.39Zm3.39-11.52L145.66,80a52.59,52.59,0,0,0,.71-5.46l4.84.38A59.6,59.6,0,0,1,150.43,80.87ZM146.53,69c0-1.84-.18-3.69-.4-5.5l4.81-.61a56.85,56.85,0,0,1,.44,6Zm-1.38-10.93a51.5,51.5,0,0,0-1.53-5.29l4.59-1.59c.65,1.89,1.21,3.83,1.67,5.78Zm-3.6-10.4A51.49,51.49,0,0,0,139,42.83l4.16-2.5A58.66,58.66,0,0,1,146,45.64Z"/><path d="M73.7,121.83a3.06,3.06,0,1,0-3.16,3A3.07,3.07,0,0,0,73.7,121.83Z"/><path d="M132.25,39.05a8.59,8.59,0,1,1,8.59-8.59A8.6,8.6,0,0,1,132.25,39.05Zm0-12.33A3.74,3.74,0,1,0,136,30.46,3.75,3.75,0,0,0,132.25,26.72Z"/><path d="M83.39,85.26c0,4,2.73,5.46,6,3.24l20.69-13.79c3.33-2.22,3.33-5.85,0-8.07L89.44,52.85c-3.32-2.22-6-.76-6,3.24Z"/></g></g></svg>