<svg xmlns="http://www.w3.org/2000/svg" viewBox="0 0 186.3 186.3"><defs><style>.cls-1{fill:none;}.cls-2,.cls-5{fill:#fff;}.cls-2,.cls-4,.cls-7{stroke:#000;}.cls-2,.cls-4{stroke-miterlimit:10;stroke-width:1.62px;}.cls-3{fill:#d2d2d2;}.cls-4,.cls-6,.cls-7{fill:#03c0b7;}.cls-7{stroke-linecap:round;stroke-linejoin:round;stroke-width:2.43px;}</style></defs><title>svg003</title><g id="图层_2" data-name="图层 2"><g id="图层_1-2" data-name="图层 1"><rect class="cls-1" width="186.3" height="186.3"/><rect class="cls-2" x="36.98" y="45.96" width="140.03" height="107.65"/><rect class="cls-3" x="44.2" y="53.19" width="125.59" height="93.2"/><path class="cls-4" d="M177,30.76V46H37V30.76a8.31,8.31,0,0,1,8.31-8.31H168.7A8.31,8.31,0,0,1,177,30.76Z"/><path d="M70.81,31.47a2.74,2.74,0,1,0,2.74,2.74A2.73,2.73,0,0,0,70.81,31.47Z"/><path d="M61.81,31.47a2.74,2.74,0,1,0,2.74,2.74A2.73,2.73,0,0,0,61.81,31.47Z"/><circle cx="52.81" cy="34.21" r="2.74"/><path class="cls-5" d="M53,65h0Z"/><path d="M103.09,67.64H53a2.61,2.61,0,1,1,0-5.21h50.13a2.61,2.61,0,1,1,0,5.21Z"/><path class="cls-5" d="M58.28,93.21h0Z"/><path d="M100.72,95.82H58.28a2.61,2.61,0,1,1,0-5.21h42.44a2.61,2.61,0,1,1,0,5.21Z"/><path class="cls-5" d="M68.22,79.12h0Z"/><path d="M99.29,81.73H68.22a2.61,2.61,0,1,1,0-5.21H99.29a2.61,2.61,0,1,1,0,5.21Z"/><path class="cls-6" d="M57.68,110.35a7.62,7.62,0,1,0,10.08-3.82A7.62,7.62,0,0,0,57.68,110.35Z"/><path d="M64.62,123.71a10.23,10.23,0,1,1,9.34-6A10.2,10.2,0,0,1,64.62,123.71Zm0-15.25a5,5,0,0,0-1.78.33,4.94,4.94,0,0,0-2.79,2.63h0a5,5,0,0,0,2.51,6.63,5,5,0,1,0,4.12-9.15A5.12,5.12,0,0,0,64.63,108.46Z"/><path d="M128.51,81l-1.83-4.26h-8.27L116.58,81H111.9l8.52-19.71h4.26L133.19,81Zm-5.95-13.85-2.48,5.73H125Z"/><path d="M149.05,63c1.38,1.17,2.07,3,2.07,5.41s-.71,4.22-2.12,5.35-3.59,1.69-6.5,1.69h-2.63V81h-4.4V61.28h7C145.47,61.28,147.67,61.86,149.05,63Zm-3.23,7.75a3.75,3.75,0,0,0,.79-2.59,2.75,2.75,0,0,0-1-2.43,5.64,5.64,0,0,0-3.2-.71h-2.51v6.62h3A3.88,3.88,0,0,0,145.82,70.79Z"/><path d="M154.56,61.28H159V81h-4.4Z"/><path d="M111.73,131.17a2.61,2.61,0,0,1-1.17-.28c-.33-.16-12.19-6.37-14.56-7.62a2.6,2.6,0,0,1-.07-4.58l14.52-8.21A2.61,2.61,0,0,1,113,115l-10.36,5.86,10.25,5.35a2.62,2.62,0,0,1,1.14,3.51A2.58,2.58,0,0,1,111.73,131.17Z"/><path d="M134.67,131.66a2.61,2.61,0,0,1-1.17-4.94c.35-.17,6.09-3.18,10.24-5.35l-10.35-5.86A2.61,2.61,0,1,1,136,111l14.53,8.21a2.62,2.62,0,0,1-.08,4.59l-14.57,7.62A2.66,2.66,0,0,1,134.67,131.66Z"/><path d="M116.16,138.39a2.7,2.7,0,0,1-1.1-.24,2.61,2.61,0,0,1-1.26-3.47l14.12-30.25a2.61,2.61,0,0,1,4.73,2.2l-14.12,30.26A2.62,2.62,0,0,1,116.16,138.39Z"/><path d="M155.63,140.71h-2.9a2.61,2.61,0,1,1,0-5.22h2.9a.44.44,0,0,0,.44-.44v-9.82a7.14,7.14,0,0,1,1.65-4.57,7.17,7.17,0,0,1-1.65-4.58v-9.82a.44.44,0,0,0-.44-.44h-2.9a2.61,2.61,0,1,1,0-5.22h2.9a5.67,5.67,0,0,1,5.66,5.66v9.82a2,2,0,0,0,2,2,2.61,2.61,0,0,1,0,5.22,2,2,0,0,0-2,2v9.82A5.67,5.67,0,0,1,155.63,140.71Z"/><path d="M94.43,140.71h-2.9a5.67,5.67,0,0,1-5.66-5.66v-9.82a2,2,0,0,0-2-2,2.61,2.61,0,0,1,0-5.22,2,2,0,0,0,2-2v-9.82a5.67,5.67,0,0,1,5.66-5.66h2.9a2.61,2.61,0,1,1,0,5.22h-2.9a.44.44,0,0,0-.44.44v9.82a7.17,7.17,0,0,1-1.65,4.58,7.14,7.14,0,0,1,1.65,4.57v9.82a.44.44,0,0,0,.44.44h2.9a2.61,2.61,0,1,1,0,5.22Z"/><path d="M158.16,94.76h-5.28V91.2h5.28Zm-10.56,0h-5.29V91.2h5.29Zm-10.57,0h-5.28V91.2H137Zm-10.56,0h-5.28V91.2h5.28Zm-10.56,0h-5.28V91.2h5.28Z"/><path d="M28.83,68.1a2.43,2.43,0,0,1-1.16,3.23h0a2.43,2.43,0,0,1-3.22-1.17h0A2.42,2.42,0,0,1,25.61,67h0l.07,0h0A2.42,2.42,0,0,1,28.83,68.1Zm-6.38,3.36a2.27,2.27,0,0,1,.37.56h0a2.47,2.47,0,0,1-.63,2.84h0a2.4,2.4,0,0,1-3.41-.28h0a2.24,2.24,0,0,1-.37-.57h0A2.4,2.4,0,0,1,19,71.18h0a2.46,2.46,0,0,1,.59-.36h0A2.4,2.4,0,0,1,22.45,71.46Zm-5.27,4.89a2.37,2.37,0,0,1,.84,1h0a2.44,2.44,0,0,1-.21,2.36h0a2.41,2.41,0,0,1-3.37.62h0a2.42,2.42,0,0,1-.83-1h0A2.39,2.39,0,0,1,13.83,77h0a2.3,2.3,0,0,1,1-.84h0A2.42,2.42,0,0,1,17.18,76.35Zm-3.82,6.11a2.49,2.49,0,0,1,1.41,1.29h0a2.36,2.36,0,0,1,.07,1.79h0A2.42,2.42,0,0,1,11.76,87h0a2.4,2.4,0,0,1-1.39-1.29h0A2.41,2.41,0,0,1,10.28,84h0a2.46,2.46,0,0,1,1.31-1.41h0A2.4,2.4,0,0,1,13.36,82.46Zm-2.09,6.89a2.42,2.42,0,0,1,2,1.42h0a2.32,2.32,0,0,1,.2,1.17h0a2.42,2.42,0,0,1-2.59,2.23h0a2.43,2.43,0,0,1-2-1.41h0a2.46,2.46,0,0,1-.21-1.18h0a2.43,2.43,0,0,1,1.44-2h0A2.35,2.35,0,0,1,11.27,89.35Zm-.21,7.19a2.44,2.44,0,0,1,2.66,1.4h0a1.85,1.85,0,0,1,.16.52h0A2.39,2.39,0,0,1,12,101.29h0A2.38,2.38,0,0,1,9.3,99.9h0a1.9,1.9,0,0,1-.15-.53h0a2.38,2.38,0,0,1,1.39-2.66h0A2.64,2.64,0,0,1,11.06,96.54ZM16,104.66l0,.07h0a2.4,2.4,0,0,1-1.13,3.17h0a2.44,2.44,0,0,1-3.25-1.12h0s0,0,0,0h0a2.44,2.44,0,0,1,1.15-3.18h0l.08,0h0A2.42,2.42,0,0,1,16,104.66Zm3.62,5.46a2.44,2.44,0,0,1,.39.61h0a2.43,2.43,0,0,1-.63,2.8h0a2.41,2.41,0,0,1-3.41-.24h0a2.34,2.34,0,0,1-.39-.61h0a2.4,2.4,0,0,1,.63-2.8h0a2.2,2.2,0,0,1,.59-.38h0A2.44,2.44,0,0,1,19.57,110.12Zm4.89,4.3a2.53,2.53,0,0,1,.88,1h0a2.42,2.42,0,0,1-.2,2.31h0a2.43,2.43,0,0,1-3.36.68h0a2.58,2.58,0,0,1-.87-1h0a2.37,2.37,0,0,1,.21-2.31h0a2.44,2.44,0,0,1,1-.87h0A2.46,2.46,0,0,1,24.46,114.42Z"/><polygon class="cls-7" points="36.73 110.87 27.25 130.06 6.07 133.14 21.4 148.08 17.78 169.18 36.73 159.22 55.67 169.18 52.05 148.08 67.38 133.14 46.2 130.06 36.73 110.87"/><path d="M157.54,36.63H132.12a2.43,2.43,0,1,1,0-4.85h25.42a2.43,2.43,0,0,1,0,4.85Zm-35.12,0h-3.89a2.43,2.43,0,0,1,0-4.85h3.89a2.43,2.43,0,0,1,0,4.85Z"/></g></g></svg>